HIERARCHY
ROOT SpineBase
{
  OFFSET 0.000000 0.000000 0.000000
  CHANNELS 6 Xposition Yposition Zposition Zrotation Xrotation Yrotation
  JOINT SpineMid
  {
    OFFSET -0.000000 31.594570 0.000000
    CHANNELS 3 Zrotation Xrotation Yrotation
    JOINT SpineShoulder
    {
      OFFSET -0.298752 23.473027 -0.696381
      CHANNELS 3 Zrotation Xrotation Yrotation
      JOINT Neck
      {
        OFFSET -0.190333 7.766689 -0.541425
        CHANNELS 3 Zrotation Xrotation Yrotation
        JOINT Head
        {
          OFFSET -1.660724 12.450337 4.651725
          CHANNELS 3 Zrotation Xrotation Yrotation
          End Site
          {
            OFFSET 0 0 0
          }
        }
      }
      JOINT ShoulderLeft
      {
        OFFSET -5.930158 -3.256844 12.037836
        CHANNELS 3 Zrotation Xrotation Yrotation
        JOINT ElbowLeft
        {
          OFFSET 0.436440 -29.802480 5.548539
          CHANNELS 3 Zrotation Xrotation Yrotation
          JOINT WristLeft
          {
            OFFSET 1.153053 -23.294719 9.190776
            CHANNELS 3 Zrotation Xrotation Yrotation
            JOINT HandLeft
            {
              OFFSET 3.781859 -4.518334 -2.638660
              CHANNELS 3 Zrotation Xrotation Yrotation
              JOINT HandTipLeft
              {
                OFFSET -0.424223 -1.428535 -0.415473
                CHANNELS 3 Zrotation Xrotation Yrotation
                End Site
                {
                  OFFSET 0 0 0
                }
              }
              JOINT ThumbLeft
              {
                OFFSET 0.146972 -0.426212 -3.405127
                CHANNELS 3 Zrotation Xrotation Yrotation
                End Site
                {
                  OFFSET 0 0 0
                }
              }
            }
          }
        }
      }
      JOINT ShoulderRight
      {
        OFFSET -4.088104 -4.138130 -9.940674
        CHANNELS 3 Zrotation Xrotation Yrotation
        JOINT ElbowRight
        {
          OFFSET -3.556856 -27.692692 -2.247843
          CHANNELS 3 Zrotation Xrotation Yrotation
          JOINT WristRight
          {
            OFFSET -4.974437 -24.693422 4.304882
            CHANNELS 3 Zrotation Xrotation Yrotation
            JOINT HandRight
            {
              OFFSET 1.088825 -4.332061 1.806071
              CHANNELS 3 Zrotation Xrotation Yrotation
              JOINT HandTipRight
              {
                OFFSET 0.198062 -7.038812 3.385631
                CHANNELS 3 Zrotation Xrotation Yrotation
                End Site
                {
                  OFFSET 0 0 0
                }
              }
              JOINT ThumbRight
              {
                OFFSET -4.574993 1.018785 0.315659
                CHANNELS 3 Zrotation Xrotation Yrotation
                End Site
                {
                  OFFSET 0 0 0
                }
              }
            }
          }
        }
      }
    }
  }
  JOINT HipLeft
  {
    OFFSET -1.660058 0.370209 -2.677403
    CHANNELS 3 Zrotation Xrotation Yrotation
    JOINT KneeLeft
    {
      OFFSET 11.850193 -26.545283 7.483000
      CHANNELS 3 Zrotation Xrotation Yrotation
      JOINT AnkleLeft
      {
        OFFSET 12.271058 -22.967104 11.006293
        CHANNELS 3 Zrotation Xrotation Yrotation
        JOINT FootLeft
        {
          OFFSET -6.329369 -7.743020 -2.177006
          CHANNELS 3 Zrotation Xrotation Yrotation
          End Site
          {
            OFFSET 0 0 0
          }
        }
      }
    }
  }
  JOINT HipRight
  {
    OFFSET -0.442601 1.100284 -3.820539
    CHANNELS 3 Zrotation Xrotation Yrotation
    JOINT KneeRight
    {
      OFFSET 4.043925 -25.123664 2.110186
      CHANNELS 3 Zrotation Xrotation Yrotation
      JOINT AnkleRight
      {
        OFFSET 8.380607 -32.170375 0.895092
        CHANNELS 3 Zrotation Xrotation Yrotation
        JOINT FootRight
        {
          OFFSET -0.974464 -7.235065 2.222560
          CHANNELS 3 Zrotation Xrotation Yrotation
          End Site
          {
            OFFSET 0 0 0
          }
        }
      }
    }
  }
}
MOTION
Frames: 10
Frame Time: 0.033333
95.506389 63.816584 319.748409 0.000000 0.000000 43.196687 -0.000000 0.000000 -43.196687 -0.000000 0.000000 0.000000 -0.000000 0.000000 0.000000 0.000000 0.000000 0.000000 -0.000000 0.000000 0.000000 -0.000000 0.000000 0.000000 -0.000000 0.000000 0.000000 -0.000000 0.000000 0.000000 0.000000 0.000000 0.000000 0.000000 0.000000 0.000000 -0.000000 0.000000 0.000000 -0.000000 0.000000 0.000000 -0.000000 0.000000 0.000000 -0.000000 0.000000 0.000000 0.000000 0.000000 0.000000 0.000000 0.000000 0.000000 -0.000000 0.000000 -43.196687 -0.000000 0.000000 0.000000 -0.000000 0.000000 0.000000 0.000000 0.000000 0.000000 -0.000000 0.000000 -43.196687 -0.000000 0.000000 0.000000 -0.000000 0.000000 0.000000 0.000000 0.000000 0.000000
95.559388 63.841706 319.696649 0.123057 -0.044581 49.604557 -0.045796 0.122610 -49.604460 -0.000000 0.000000 0.000000 -0.000000 0.000000 0.000000 0.000000 0.000000 0.000000 -0.000000 0.000000 0.000000 -0.000000 0.000000 0.000000 -0.000000 0.000000 0.000000 -0.000000 0.000000 0.000000 0.000000 0.000000 0.000000 0.000000 0.000000 0.000000 -0.000000 0.000000 0.000000 -0.000000 0.000000 0.000000 1.535712 1.406917 0.976752 -2.979780 -2.671247 -1.769197 0.000000 0.000000 0.000000 0.000000 0.000000 0.000000 0.015974 -0.872900 -49.645862 -2.146695 1.824333 0.085540 1.699348 1.766971 -2.533922 0.000000 0.000000 0.000000 -0.045796 0.122610 -49.604460 -0.000000 0.000000 0.000000 -0.000000 0.000000 0.000000 0.000000 0.000000 0.000000
95.577278 63.872582 319.652246 0.204158 -0.092693 53.934759 -0.045262 0.219599 -53.934507 -0.000000 0.000000 0.000000 -0.000000 0.000000 0.000000 0.000000 0.000000 0.000000 -0.000000 0.000000 0.000000 -0.000000 0.000000 0.000000 -0.000000 0.000000 0.000000 -0.000000 0.000000 0.000000 0.000000 0.000000 0.000000 0.000000 0.000000 0.000000 -0.000000 0.000000 0.000000 -0.000000 0.000000 0.000000 2.665115 2.593236 1.708881 -5.339840 -4.520140 -3.250933 0.000000 0.000000 0.000000 0.000000 0.000000 0.000000 -0.047021 -1.477986 -53.994304 -3.731497 3.166871 0.190900 3.272410 3.527581 -4.882672 0.000000 0.000000 0.000000 -0.906186 -0.142401 -54.098182 0.211635 0.909640 0.162575 -1.125837 0.252669 -0.377164 0.000000 0.000000 0.000000
95.560061 63.909210 319.615200 0.243131 -0.144355 56.862291 -0.012032 0.282500 -56.861955 -0.000000 0.000000 0.000000 -0.000000 0.000000 0.000000 0.000000 0.000000 0.000000 -0.000000 0.000000 0.000000 -0.000000 0.000000 0.000000 -0.000000 0.000000 0.000000 -0.000000 0.000000 0.000000 0.000000 0.000000 0.000000 0.000000 0.000000 0.000000 -0.000000 0.000000 0.000000 -0.000000 0.000000 0.000000 3.324813 3.474651 2.170603 -6.977792 -5.567739 -4.336400 0.000000 0.000000 0.000000 0.000000 0.000000 0.000000 -0.082364 -1.810097 -56.916221 -4.742517 4.022771 0.276239 4.680600 5.239088 -7.038995 0.000000 0.000000 0.000000 -1.140103 -0.173420 -57.072664 0.230547 1.194678 0.209379 -1.603099 0.282693 -0.526016 0.000000 0.000000 0.000000
95.507737 63.951591 319.585510 0.239790 -0.199590 58.781129 0.046403 0.308516 -58.780836 -0.000000 0.000000 0.000000 -0.000000 0.000000 0.000000 0.000000 0.000000 0.000000 -0.000000 0.000000 0.000000 -0.000000 0.000000 0.000000 -0.000000 0.000000 0.000000 -0.000000 0.000000 0.000000 0.000000 0.000000 0.000000 0.000000 0.000000 0.000000 -0.000000 0.000000 0.000000 -0.000000 0.000000 0.000000 3.486700 3.996845 2.353264 -7.835661 -5.827241 -4.950933 0.000000 0.000000 0.000000 0.000000 0.000000 0.000000 -0.035454 -1.869991 -58.803818 -5.169738 4.388747 0.315847 5.888260 6.874241 -9.000826 0.000000 0.000000 0.000000 -1.224608 -0.230223 -59.016347 0.192486 1.366986 0.234084 -2.028120 0.249222 -0.651120 0.000000 0.000000 0.000000
95.420304 63.999725 319.563178 0.193941 -0.258421 59.908272 0.126353 0.297371 -59.908162 -0.000000 0.000000 0.000000 -0.000000 0.000000 0.000000 0.000000 0.000000 0.000000 -0.000000 0.000000 0.000000 -0.000000 0.000000 0.000000 -0.000000 0.000000 0.000000 -0.000000 0.000000 0.000000 0.000000 0.000000 0.000000 0.000000 0.000000 0.000000 -0.000000 0.000000 0.000000 -0.000000 0.000000 0.000000 3.159554 4.142617 2.263085 -7.913557 -5.298591 -5.064550 0.000000 0.000000 0.000000 0.000000 0.000000 0.000000 0.119418 -1.654940 -59.873021 -5.005702 4.260402 0.298891 6.863997 8.419811 -10.769445 0.000000 0.000000 0.000000 -1.160476 -0.328030 -60.146733 0.098197 1.427374 0.237003 -2.403712 0.152042 -0.753966 0.000000 0.000000 0.000000
95.325908 64.052243 319.525914 0.119521 -0.277026 59.528146 0.178153 0.243496 -59.528236 -0.000000 0.000000 0.000000 -0.000000 0.000000 0.000000 0.000000 0.000000 0.000000 -0.000000 0.000000 0.000000 -0.000000 0.000000 0.000000 -0.000000 0.000000 0.000000 -0.000000 0.000000 0.000000 0.000000 0.000000 0.000000 0.000000 0.000000 0.000000 -0.000000 0.000000 0.000000 -0.000000 0.000000 0.000000 3.003679 5.581041 2.544487 -7.136522 -4.721352 -5.052206 0.000000 0.000000 0.000000 0.000000 0.000000 0.000000 0.364686 -0.850229 -59.411264 -3.776773 3.287632 0.210266 7.946168 11.579559 -13.888580 0.000000 0.000000 0.000000 -1.020912 -0.480757 -59.754598 -0.021639 1.400645 0.224144 -2.757894 0.127110 -0.858921 0.000000 0.000000 0.000000
95.179251 64.025279 319.480273 0.014631 -0.313149 57.437000 0.256048 0.180875 -57.437364 -0.000000 0.000000 0.000000 -0.000000 0.000000 0.000000 0.000000 0.000000 0.000000 -0.000000 0.000000 0.000000 -0.000000 0.000000 0.000000 -0.000000 0.000000 0.000000 -0.000000 0.000000 0.000000 0.000000 0.000000 0.000000 0.000000 0.000000 0.000000 -0.000000 0.000000 0.000000 -0.560830 0.727537 -0.240803 2.390666 3.594053 2.077155 -6.124363 -0.264229 -4.094711 0.000000 0.000000 0.000000 0.000000 0.000000 0.000000 0.256048 0.180875 -57.437364 -1.791708 2.232610 0.375881 8.155927 11.873630 -14.327744 0.000000 0.000000 0.000000 -0.715200 -0.601086 -57.628776 -0.140400 1.238972 0.189368 -3.031539 -0.137540 -0.912989 0.000000 0.000000 0.000000
94.935736 64.171189 319.495116 -0.192626 -0.409098 56.628507 0.447603 0.064162 -56.629445 -0.000000 0.000000 0.000000 -0.000000 0.000000 0.000000 0.000000 0.000000 0.000000 -0.000000 0.000000 0.000000 -0.000000 0.000000 0.000000 -0.000000 0.000000 0.000000 -0.000000 0.000000 0.000000 0.000000 0.000000 0.000000 0.000000 0.000000 0.000000 -0.000000 0.000000 0.000000 -1.638071 0.424841 -0.364285 2.232026 3.007211 1.490350 -5.965431 2.808729 -3.677745 0.000000 0.000000 0.000000 0.000000 0.000000 0.000000 1.108558 1.671358 -56.271648 0.654706 -0.410480 0.037674 8.125064 13.276619 -15.426113 0.000000 0.000000 0.000000 -0.023009 -0.894252 -56.735335 -0.543258 0.919191 0.106839 -3.143024 -0.647324 -0.891470 0.000000 0.000000 0.000000
94.631684 64.297867 319.583730 -0.472726 -0.585723 57.005674 0.748680 -0.077540 -57.007584 -0.000000 0.000000 0.000000 -0.000000 0.000000 0.000000 0.000000 0.000000 0.000000 -0.000000 0.000000 0.000000 -0.000000 0.000000 0.000000 -0.000000 0.000000 0.000000 -0.000000 0.000000 0.000000 0.000000 0.000000 0.000000 0.000000 0.000000 0.000000 -0.000000 0.000000 0.000000 -3.612959 -0.349848 -0.566718 2.905626 1.367115 0.513227 -6.072227 5.850711 -2.817747 0.000000 0.000000 0.000000 0.000000 0.000000 0.000000 2.026199 3.277826 -56.336149 4.511439 -4.274244 -0.051195 4.878728 17.560420 -17.102343 0.000000 0.000000 0.000000 0.814713 -1.203726 -57.014270 -0.980635 0.557709 0.012197 -3.417519 -1.285344 -0.908569 0.000000 0.000000 0.000000
